<svg xmlns="http://www.w3.org/2000/svg" xmlns:xlink="http://www.w3.org/1999/xlink" width="640" height="382.969" viewBox="0 0 640 382.969">
  <defs>
    <style>
      .cls-1 {
        fill: none;
      }

      .cls-2 {
        fill: #303d72;
      }

      .cls-3 {
        fill: #f0f1f4;
      }

      .cls-4 {
        fill: #60d6e6;
      }

      .cls-5 {
        fill: #fbad83;
      }

      .cls-6 {
        fill: #19192b;
      }

      .cls-7 {
        fill: #27345e;
      }

      .cls-8 {
        fill: #fff;
      }

      .cls-9 {
        fill: #e68d5c;
      }

      .cls-10 {
        fill: #491f15;
      }

      .cls-11 {
        fill: #7a4029;
      }

      .cls-12 {
        fill: #26335e;
      }

      .cls-13 {
        fill: #ffb0b2;
      }

      .cls-14 {
        fill: #e57a87;
      }

      .cls-15 {
        fill: #a9c2dc;
      }

      .cls-16 {
        fill: #96b2cc;
      }

      .cls-17 {
        fill: #e5e5e5;
      }

      .cls-18 {
        fill: #ff9398;
      }

      .cls-19 {
        fill: #f4828b;
      }

      .cls-20 {
        fill: #e56107;
      }

      .cls-21 {
        fill: #f76a00;
      }

      .cls-22 {
        fill: #1a2249;
      }

      .cls-23 {
        fill: #50cad3;
      }

      .cls-24 {
        fill: #00b98f;
      }

      .cls-25 {
        fill: #068e6a;
      }

      .cls-26 {
        fill: #00c99c;
      }

      .cls-27 {
        fill: #f89900;
      }

      .cls-28 {
        fill: #f9c200;
      }

      .cls-29 {
        fill: #edb607;
      }

      .cls-30 {
        clip-path: url(#clip-path);
      }

      .cls-31 {
        fill: #ccbcb7;
      }

      .cls-32 {
        fill: #d48c68;
      }
    </style>
    <clipPath id="clip-path">
      <path id="패스_16035" data-name="패스 16035" class="cls-1" d="M605.94,90.1h0a29.94,29.94,0,0,0,2.437,9.23c2.478,5.212,6.42,7.131,10.68,7.131h0c-4.26,0-8.194-1.919-10.673-7.131a29.779,29.779,0,0,1-2.437-9.23" transform="translate(-605.94 -90.1)"/>
    </clipPath>
  </defs>
  <g id="illust" transform="translate(0 0.05)">
    <g id="Layer_7" data-name="Layer 7" transform="translate(0 -0.05)">
      <path id="패스_15939" data-name="패스 15939" class="cls-2" d="M715.822,303.293h0a14.573,14.573,0,0,1-14.532-14.532V62.093a14.528,14.528,0,0,1,29.057,0V288.748A14.573,14.573,0,0,1,715.822,303.293Z" transform="translate(-217.157 -14.694)"/>
      <path id="패스_15940" data-name="패스 15940" class="cls-3" d="M564.675,303.307H234.192a14.574,14.574,0,0,1-14.532-14.5V62.107a14.574,14.574,0,0,1,14.532-14.5H564.675a14.574,14.574,0,0,1,14.532,14.5V288.769a14.574,14.574,0,0,1-14.532,14.5" transform="translate(-68.018 -14.708)"/>
      <path id="패스_15941" data-name="패스 15941" class="cls-4" d="M539.3,144.981H486.79V92.48H539.3Z" transform="translate(-150.736 -28.603)"/>
      <path id="패스_15942" data-name="패스 15942" class="cls-5" d="M156.312,252.19a64.767,64.767,0,0,1,8.975,8.194c3.107,3.776.117,18.384-2.534,20.71s-6.441-2.071-7.249-5.689,0-5.357,0-5.357-.828.918-2.368-.69,0-6.558,0-6.558l-4.646-2.4Z" transform="translate(-45.98 -78.057)"/>
      <path id="패스_15943" data-name="패스 15943" class="cls-6" d="M109.9,111.41l-8.063,61.848,36.381,35.525s-1.974,5.688-5.129,8.049l-3.155,2.361L83.65,187.755Z" transform="translate(-25.902 -34.464)"/>
      <path id="패스_15944" data-name="패스 15944" class="cls-5" d="M208.43,134.871s3.735-2.071,7.3-3.887,23.223,1.464,23.223,1.464-.752,2.485-1.691,2.962-10.624-.566-10.624-.566a6.315,6.315,0,0,1,.566,2.817c0,1.788,0,3.859-2.589,5.171s-11.232,0-11.232,0Z" transform="translate(-64.541 -40.356)"/>
      <path id="패스_15945" data-name="패스 15945" class="cls-6" d="M127.63,526.328v17.99h41.089a8.049,8.049,0,0,0-5.385-7.594l-18.059-6.351-2.112-7.773Z" transform="translate(-39.521 -161.791)"/>
      <path id="패스_15946" data-name="패스 15946" class="cls-6" d="M39.34,523.48l-1.47,20.71H76.378a8.111,8.111,0,0,0-5.716-7.746l-17.514-5.378-1.284-8.457Z" transform="translate(-11.727 -161.794)"/>
      <path id="패스_15947" data-name="패스 15947" class="cls-6" d="M109.287,279.68l12.274,92.437,5.619,78.838s-7.166,3.176-13.876,2.637l-6.7-.545L94.7,373.263l-30.03-88.5Z" transform="translate(-20.025 -86.57)"/>
      <path id="패스_15948" data-name="패스 15948" class="cls-2" d="M86.6,280.686s-1.691,86.832-1.657,92.237S53.681,450.8,53.681,450.8,47.047,452,41.607,448.917l-5.447-3.086,21.29-81.143s-18.639-63.9-17.625-79.859l1.015-15.988Z" transform="translate(-11.197 -83.213)"/>
      <path id="패스_15949" data-name="패스 15949" class="cls-7" d="M61.737,320.07l23.3-19.557L41.468,293.25c-.228,12.116,8.491,45.908,13.766,65.141Z" transform="translate(-12.839 -90.772)"/>
      <path id="패스_15950" data-name="패스 15950" class="cls-2" d="M60.378,97.5s-15.988,3.88-20.883,7.994c-4.411,3.714-1.332,92.976-.262,113a78.535,78.535,0,0,1,0,8.74l-.863,14.794s39.888,5.033,54.537,1.056,14.049-4.142,14.049-4.142S99.038,111.92,94.626,103.836c-3.645-6.655-23-7.456-23-7.456Z" transform="translate(-11.515 -29.81)"/>
      <path id="패스_15951" data-name="패스 15951" class="cls-8" d="M70.78,97.746s10.618,18.059,15.291,32.8c4.432,13.98,4.066,7.69,4.066,7.69l.469-41.055Z" transform="translate(-21.917 -30.058)"/>
      <path id="패스_15952" data-name="패스 15952" class="cls-5" d="M70.78,61.45V86.682s4.232,3.6,11.681,3.169c6.9-.4,7.98-2.9,7.98-2.9l2.851-13.068Z" transform="translate(-21.917 -18.994)"/>
      <path id="패스_15953" data-name="패스 15953" class="cls-9" d="M91.255,87.081c-3.728.822-8.015-1.491-11.211-4.025-5.9-4.687-8.284-13.986-8.284-13.986l19.5,5.868,2.32,1.277Z" transform="translate(-22.221 -21.354)"/>
      <path id="패스_15954" data-name="패스 15954" class="cls-10" d="M117.387,16.6s3.334,1.243,3.107,9.209a91.972,91.972,0,0,1-1.526,10.935l-8.7-22.222Z" transform="translate(-34.145 -4.462)"/>
      <path id="패스_15955" data-name="패스 15955" class="cls-5" d="M104.558,55.843c-6.9,14.5-23.962,5.923-31.28-1.381S66.976,19.255,69,13.974,87.928,4.412,96.847,7.823,111.441,41.394,104.558,55.843Z" transform="translate(-20.909 -2.01)"/>
      <path id="패스_15956" data-name="패스 15956" class="cls-11" d="M78.667,42.89s1.9,16.023,6.289,17.335c3.749,1.1,8.975-4.259,15.726-4.549,3.762-.159,5.115.2,6.648,1.236a33.093,33.093,0,0,1-2.692,10.2c-6.9,14.5-23.962,5.923-31.28-1.381-3.541-3.535-5.129-11.895-5.6-20.179Z" transform="translate(-20.982 -13.247)"/>
      <path id="패스_15957" data-name="패스 15957" class="cls-11" d="M74.523,35.337s2.112.207,2.975-1.049-1.615-8.339.884-15.878C80.17,13.1,88.275,9.967,94.9,11.265s8.284,1.892,8.975-.035S101.9,4.769,99.6,2.946,86.48-2.017,77.505,1.648,66.736,7.792,64.72,13.619s-.69,20.42,0,21.359S74.523,35.337,74.523,35.337Z" transform="translate(-19.709 0.05)"/>
      <path id="패스_15958" data-name="패스 15958" class="cls-5" d="M64.67,46.455c0,3.728,4.964,7.042,8.008,7.042s3.017-3.314,3.017-7.042S73.23,39.69,70.172,39.69,64.67,42.721,64.67,46.455Z" transform="translate(-20.025 -12.256)"/>
      <path id="패스_15959" data-name="패스 15959" class="cls-11" d="M114.61,63.16s0,17.542-2.071,20.71-8.85,3.852-11.922,2.527-8.049-6.089-9.292-10.107S109.5,66.5,109.5,66.5Z" transform="translate(-28.261 -19.524)"/>
      <path id="패스_15960" data-name="패스 15960" class="cls-9" d="M67.571,45.851c-.352,1.671,1.553,3.624,2.913,3.914s-1.567-2-1.208-3.666,2.761-2.465,1.381-2.761S67.923,44.153,67.571,45.851Z" transform="translate(-20.91 -13.371)"/>
      <path id="패스_15961" data-name="패스 15961" class="cls-12" d="M59.538,264.06l-.628,29.388,6.786.545a19.916,19.916,0,0,0,21.452-18.252q.03-.366.046-.732l.463-10.707S63.887,265.648,59.538,264.06Z" transform="translate(-18.242 -81.733)"/>
      <path id="패스_15962" data-name="패스 15962" class="cls-12" d="M130.389,259.176l-10.279,1.65s4.632,17.259,7.366,22.195a12.814,12.814,0,0,0,4.142,4.715,1.056,1.056,0,0,0,1.622-.953l-1.657-26.627a1.057,1.057,0,0,0-1.12-.988Z" transform="translate(-37.192 -80.217)"/>
      <path id="패스_15963" data-name="패스 15963" class="cls-11" d="M117.009,38.561a.689.689,0,0,1-.235-1.339,11.434,11.434,0,0,1,6.448,0,.69.69,0,0,1-.31,1.345c-.023-.006-.047-.012-.07-.02a10.179,10.179,0,0,0-5.606,0A.684.684,0,0,1,117.009,38.561Z" transform="translate(-36.017 -11.348)"/>
      <path id="패스_15964" data-name="패스 15964" class="cls-11" d="M99.213,40.423a.69.69,0,0,1-.518-1.139c.124-.152,3.224-3.638,8.74-1.885a.692.692,0,1,1-.421,1.319,6.9,6.9,0,0,0-7.276,1.47A.69.69,0,0,1,99.213,40.423Z" transform="translate(-30.51 -11.394)"/>
      <path id="패스_15965" data-name="패스 15965" class="cls-7" d="M38.805,244.745s4.218.532,10.41,1.111l7.09-93.307,39.35,2.264L45.26,105.24a22.554,22.554,0,0,0-5.295,2.968c-4.411,3.714-1.332,92.976-.269,113a78.533,78.533,0,0,1,0,8.74Z" transform="translate(-11.661 -32.554)"/>
      <path id="패스_15966" data-name="패스 15966" class="cls-2" d="M47.985,106.205A9.568,9.568,0,0,0,36.25,116.961a35.106,35.106,0,0,0,1.174,5.067c2.962,9.334,41.076,26.647,53.426,32.046a11.329,11.329,0,0,0,7.787.476l62.822-18.639s-1.036-7.732-3.452-10.749L96.91,138.03s-40.558-29.685-48.669-31.756Z" transform="translate(-11.19 -32.767)"/>
      <path id="패스_15967" data-name="패스 15967" class="cls-4" d="M452.876,225.953H410.24V183.29h42.636Zm-41.966-.69h41.276V183.98H410.93Z" transform="translate(-127.032 -56.722)"/>
      <path id="패스_15968" data-name="패스 15968" class="cls-4" d="M339.09,226.122v-43.2l35.346,20.641Zm.69-42v40.73l33.337-21.277Z" transform="translate(-105 -56.608)"/>
      <path id="패스_15969" data-name="패스 15969" class="cls-13" d="M615.351,297.091h-52.5v-52.5h52.5Z" transform="translate(-174.288 -75.704)"/>
      <path id="패스_15970" data-name="패스 15970" class="cls-14" d="M237.027,244.59l4.087,43.851L273.153,314.5s-1.9,3.452-3.8,4.66l-1.9,1.208-35.7-21.4-8.043-19.5Z" transform="translate(-69.272 -75.704)"/>
      <rect id="사각형_4409" data-name="사각형 4409" class="cls-2" width="107.756" height="107.756" transform="translate(76.242 274.868)"/>
      <rect id="사각형_4410" data-name="사각형 4410" class="cls-15" width="107.756" height="107.756" transform="translate(108.605 274.868)"/>
      <path id="패스_15971" data-name="패스 15971" class="cls-16" d="M235.2,398.11h53.992V505.866H273.4Z" transform="translate(-72.83 -123.242)"/>
      <rect id="사각형_4411" data-name="사각형 4411" class="cls-2" width="66.322" height="66.322" transform="translate(56.926 316.296)"/>
      <rect id="사각형_4412" data-name="사각형 4412" class="cls-3" width="66.322" height="66.322" transform="translate(76.849 316.296)"/>
      <path id="패스_15972" data-name="패스 15972" class="cls-17" d="M163.084,458.12h28.808v66.329H157.32Z" transform="translate(-48.715 -141.824)"/>
      <path id="패스_15973" data-name="패스 15973" class="cls-6" d="M199.685,363.627h0A19.329,19.329,0,0,0,217.218,384.6h0l46.474,4.142,12.122,85.776,15.781-1.284s-2.3-86.024-4.736-94.943-10.127-12.647-20.959-14.3S199.685,363.627,199.685,363.627Z" transform="translate(-61.809 -112.417)"/>
      <path id="패스_15974" data-name="패스 15974" class="cls-18" d="M193.054,236.23l-16.389,4.943-11.046,89.78,64.893,3.251-9.755-87.467a10.562,10.562,0,0,0-8.1-9.113l-3.314-.773Z" transform="translate(-51.285 -73.115)"/>
      <path id="패스_15975" data-name="패스 15975" class="cls-19" d="M228.181,322.878l-42.367-33.1V268.81l-12.557,10.4-7.587,61.834,64.9,3.252Z" transform="translate(-51.3 -83.204)"/>
      <path id="패스_15976" data-name="패스 15976" class="cls-6" d="M324.544,520.54v9.665l8.339,3.707a10.356,10.356,0,0,1,6.158,9.472h-7.3l-18.122-5.24L312,519.27Z" transform="translate(-96.612 -160.76)"/>
      <path id="패스_15977" data-name="패스 15977" class="cls-2" d="M168.89,369.97h0c0,10.68,8.505,16.92,19.178,16.92h46.654l20.773,88.889h15.188s-10.59-92.672-13.807-101.391-11.218-11.736-22.153-12.378C221.432,361.209,221.488,364.033,168.89,369.97Z" transform="translate(-52.297 -112.022)"/>
      <path id="패스_15978" data-name="패스 15978" class="cls-7" d="M169.09,370.318c0,10.68,8.5,16.92,19.178,16.92h8.975L221.984,363C214.121,364.146,201.778,366.638,169.09,370.318Z" transform="translate(-52.359 -112.37)"/>
      <path id="패스_15979" data-name="패스 15979" class="cls-2" d="M295.59,520.11l1.864,15.643,20.227,7.891h8.284a8.284,8.284,0,0,0-4.743-7.476l-1.1-.525-11.411-9.837-1.553-4.832Z" transform="translate(-91.53 -161.02)"/>
      <path id="패스_15980" data-name="패스 15980" class="cls-5" d="M241.6,343.73s8.836,1.381,11.625,3.624,4.984,8.16,4.984,8.16H250.4c-1.988,0-11.563-5.889-11.563-5.889Z" transform="translate(-73.958 -106.403)"/>
      <path id="패스_15981" data-name="패스 15981" class="cls-18" d="M182.87,244.46a9.071,9.071,0,0,0-14.166,4.577c-3.783,12.364-9.969,32.7-11.591,38.894-2.382,9.1,7.911,13.324,14.615,16.244s41.421,16.568,41.421,16.568,5.481-2.63,5.122-5.744l-.359-3.113-45.487-24.9s14.5-24.894,15.036-34.234C187.674,249.293,185.583,246.552,182.87,244.46Z" transform="translate(-48.542 -75.091)"/>
      <path id="패스_15982" data-name="패스 15982" class="cls-15" d="M267.25,342.029h53.205a2.182,2.182,0,0,0,2.181-2.181h0V302.368a2.188,2.188,0,0,0-2.181-2.188H267.25Z" transform="translate(-82.755 -92.918)"/>
      <path id="패스_15983" data-name="패스 15983" class="cls-6" d="M265.21,342.029h1.167a1.616,1.616,0,0,0,1.615-1.615V301.8a1.622,1.622,0,0,0-1.615-1.622H265.21Z" transform="translate(-82.123 -92.918)"/>
      <ellipse id="타원_438" data-name="타원 438" class="cls-8" cx="3.265" cy="4.356" rx="3.265" ry="4.356" transform="translate(208.92 223.831)"/>
      <rect id="사각형_4413" data-name="사각형 4413" class="cls-6" width="30.872" height="2.837" transform="translate(152.208 249.111)"/>
      <rect id="사각형_4414" data-name="사각형 4414" class="cls-15" width="55" height="2.837" transform="translate(183.087 249.111)"/>
      <path id="패스_15984" data-name="패스 15984" class="cls-8" d="M206,236.34l14.387,15.2,1.042-14.615Z" transform="translate(-63.789 -73.149)"/>
      <path id="패스_15985" data-name="패스 15985" class="cls-20" d="M223.34,213.826l18.826,2.941V187.4Z" transform="translate(-69.158 -57.995)"/>
      <path id="패스_15986" data-name="패스 15986" class="cls-5" d="M206,203.06v22.975a12.475,12.475,0,0,0,9.2,2.886c4.308-.29,6.213-2.3,6.213-2.3l2.306-12.254Z" transform="translate(-63.789 -62.844)"/>
      <path id="패스_15987" data-name="패스 15987" class="cls-9" d="M206,206.967a8.824,8.824,0,0,0,.573,1.174c3.031,5.046,9.154,12.475,15.595,14.566l1.567-8.339L206,203.06Z" transform="translate(-63.789 -62.844)"/>
      <path id="패스_15988" data-name="패스 15988" class="cls-5" d="M236.749,196.424c-6.275,13.2-22.091,2.575-28.746-4.08s-5.523-29.264-3.666-34.082,17.259-8.726,25.384-5.619S243.01,183.224,236.749,196.424Z" transform="translate(-62.83 -46.888)"/>
      <path id="패스_15989" data-name="패스 15989" class="cls-21" d="M211.289,205.969l-15.878-5.392s-2.333-36.588,2.761-45.729,18.529-12.24,27.207-8.975c12.626,4.756,12.426,21.525,12.626,23a25.538,25.538,0,0,0-8.864-.062,32.655,32.655,0,0,1-9.872.29l-6.213-.746Z" transform="translate(-60.344 -44.745)"/>
      <path id="패스_15990" data-name="패스 15990" class="cls-20" d="M211.285,217.013l1.381-29.36-17.383-7.373c-1,13.807.117,31.342.117,31.342Z" transform="translate(-60.341 -55.79)"/>
      <path id="패스_15991" data-name="패스 15991" class="cls-5" d="M207.07,196.367c0,2.478,3.293,4.681,5.316,4.681s2.009-2.2,2.009-4.681-1.643-4.487-3.666-4.487S207.07,193.889,207.07,196.367Z" transform="translate(-64.12 -59.382)"/>
      <path id="패스_15992" data-name="패스 15992" class="cls-8" d="M217.521,206.085a3.555,3.555,0,1,1-3.555-3.555h0A3.556,3.556,0,0,1,217.521,206.085Z" transform="translate(-65.154 -62.68)"/>
      <path id="패스_15993" data-name="패스 15993" class="cls-22" d="M251.483,200.468c-3.093,0-5.613-3-5.613-6.683v-.345h11.218v.345C257.1,197.472,254.582,200.468,251.483,200.468Zm-4.915-6.365c.138,3.155,2.292,5.675,4.915,5.675s4.777-2.52,4.915-5.675Z" transform="translate(-76.134 -59.865)"/>
      <path id="패스_15994" data-name="패스 15994" class="cls-22" d="M232.683,200.468c-3.093,0-5.613-3-5.613-6.683v-.345H238.3v.345C238.3,197.472,235.775,200.468,232.683,200.468Zm-4.915-6.365c.138,3.155,2.292,5.675,4.915,5.675s4.777-2.52,4.915-5.675Z" transform="translate(-70.313 -59.865)"/>
      <rect id="사각형_4415" data-name="사각형 4415" class="cls-22" width="21.221" height="0.69" transform="translate(149.405 133.547)"/>
      <rect id="사각형_4416" data-name="사각형 4416" class="cls-6" width="18.177" height="55.745" rx="9.088" transform="translate(142.398 318.098)"/>
      <path id="패스_15995" data-name="패스 15995" class="cls-2" d="M217.875,460.73h.193a8.974,8.974,0,0,1,8.975,8.975h0v37.762a8.974,8.974,0,0,1-8.975,8.975h-.193a8.974,8.974,0,0,1-8.975-8.975V469.7A8.974,8.974,0,0,1,217.875,460.73Z" transform="translate(-64.686 -142.633)"/>
      <rect id="사각형_4417" data-name="사각형 4417" class="cls-2" width="62.394" height="55.745" rx="13.02" transform="translate(121.95 326.741)"/>
      <rect id="사각형_4418" data-name="사각형 4418" class="cls-18" width="18.177" height="55.745" rx="9.088" transform="translate(117.407 326.741)"/>
      <path id="패스_15996" data-name="패스 15996" class="cls-13" d="M174.612,521.624V480.693a7.393,7.393,0,0,1,6.814-7.373h-3.963a7.4,7.4,0,0,0-7.394,7.373v40.951a7.4,7.4,0,0,0,7.394,7.373h3.963A7.393,7.393,0,0,1,174.612,521.624Z" transform="translate(-52.663 -146.531)"/>
      <path id="패스_15997" data-name="패스 15997" class="cls-6" d="M234.342,525.284H214.688a8.2,8.2,0,0,1-8.208-8.194V495.91h36.071v21.173a8.2,8.2,0,0,1-8.2,8.2Z" transform="translate(-63.937 -153.526)"/>
      <path id="패스_15998" data-name="패스 15998" class="cls-13" d="M236.959,525.284h-19.64a8.208,8.208,0,0,1-8.208-8.2V495.91h36.078v21.173a8.208,8.208,0,0,1-8.215,8.2Z" transform="translate(-64.752 -153.526)"/>
      <rect id="사각형_4419" data-name="사각형 4419" class="cls-2" width="640" height="0.69" transform="translate(0 382.279)"/>
      <path id="패스_15999" data-name="패스 15999" class="cls-4" d="M239.444,64.627a3.307,3.307,0,1,1-3.307-3.307h0A3.314,3.314,0,0,1,239.444,64.627Z" transform="translate(-72.097 -18.954)"/>
      <path id="패스_16000" data-name="패스 16000" class="cls-18" d="M562.85,250.81l39.833,48.207H562.85Z" transform="translate(-174.288 -77.63)"/>
      <path id="패스_16001" data-name="패스 16001" class="cls-4" d="M259.134,64.627a3.307,3.307,0,1,1-3.307-3.307,3.307,3.307,0,0,1,3.307,3.307Z" transform="translate(-78.194 -18.954)"/>
      <path id="패스_16002" data-name="패스 16002" class="cls-4" d="M278.284,64.627a3.307,3.307,0,1,1-3.307-3.307h.007A3.307,3.307,0,0,1,278.284,64.627Z" transform="translate(-84.123 -18.954)"/>
      <path id="패스_16003" data-name="패스 16003" class="cls-8" d="M708.332,213.626A15.236,15.236,0,1,1,693.1,198.39h0A15.236,15.236,0,0,1,708.332,213.626Z" transform="translate(-209.901 -61.398)"/>
      <path id="패스_16004" data-name="패스 16004" class="cls-23" d="M486.79,102.6,539.3,125.54v22.574H486.79Z" transform="translate(-150.736 -31.736)"/>
      <path id="패스_16005" data-name="패스 16005" class="cls-24" d="M791.434,496.147s.863-26.986,0-66.75,43.582-75.993,80.308-57.879c0,0-23.575.29-40.351,14.863s-26.3,23.14-27.662,48.1-6.386,61.662-6.386,61.662Z" transform="translate(-245.066 -113.523)"/>
      <path id="패스_16006" data-name="패스 16006" class="cls-24" d="M760.873,460.181s-2.906-78.92-12.378-109.689,3.217-99.672,3.217-99.672.456,53.233,8.16,79.431,20.9,60.06,18.384,90.746-9.03,39.26-9.03,39.26Z" transform="translate(-230.686 -77.633)"/>
      <path id="패스_16007" data-name="패스 16007" class="cls-25" d="M768.654,400.392,749,393.91c.083.3.166.6.262.891,9.472,30.769,12.378,109.689,12.378,109.689l8.353.076s6.517-8.588,9.03-39.26C780.8,443.988,774.964,421.144,768.654,400.392Z" transform="translate(-231.93 -121.941)"/>
      <path id="패스_16008" data-name="패스 16008" class="cls-26" d="M743.356,473.879s12.475-39.35-9.271-102.054S685.45,294.81,685.45,294.81s24.245,52.839,34.386,94.149S730.1,473.872,730.1,473.872Z" transform="translate(-212.252 -91.255)"/>
      <path id="패스_16009" data-name="패스 16009" class="cls-25" d="M805.583,400.86c-8.912,11.011-14.442,24.853-14.138,39.108.856,39.764,0,66.75,0,66.75h5.9s5.012-36.7,6.372-61.662c.98-17.949,6.172-27.407,15.236-36.719Z" transform="translate(-245.07 -124.094)"/>
      <path id="패스_16010" data-name="패스 16010" class="cls-26" d="M777.29,467.974s6.579-37.859-.69-91.443S838.4,275.74,838.4,275.74s-36.236,42.5-42.8,76.967-1.332,77.077-5.523,98.485c-2.561,13.193-2.761,16.762-2.761,16.762Z" transform="translate(-240.31 -85.35)"/>
      <path id="패스_16011" data-name="패스 16011" class="cls-26" d="M784.759,452.919s3.652-23.672,3.2-58.748,21.829-64.458.034-116.413-37.217-50.6-37.217-50.6,25.847-2.264,43.982,30.375,21.9,74.675,10.017,114.977-11.239,80.412-11.239,80.412Z" transform="translate(-232.481 -70.295)"/>
      <path id="패스_16012" data-name="패스 16012" class="cls-24" d="M758.458,514.834s9.865-31.128-3.245-82.11L734.22,427.07c.248.953.49,1.905.69,2.844,10.148,41.31,10.266,84.913,10.266,84.913Z" transform="translate(-227.353 -132.21)"/>
      <path id="패스_16013" data-name="패스 16013" class="cls-24" d="M779.277,445.89C783.15,489.941,778,519.667,778,519.667h10.017s.221-3.569,2.761-16.762c2.685-13.848,1.443-36.588,2.009-60.226Z" transform="translate(-240.91 -137.043)"/>
      <path id="패스_16014" data-name="패스 16014" class="cls-24" d="M803.264,473.2c.228,33.509-3.224,55.918-3.224,55.918h8.753a304.444,304.444,0,0,1,4.225-49.546Z" transform="translate(-247.735 -146.494)"/>
      <path id="패스_16015" data-name="패스 16015" class="cls-6" d="M589.6,522.008l-.69,21.4H553.7a9.589,9.589,0,0,1,6.31-9.009l14.055-5.122,1.243-9.168Z" transform="translate(-171.455 -161.02)"/>
      <path id="패스_16016" data-name="패스 16016" class="cls-2" d="M666.448,520.11l3.624,23.534H635.79a7.725,7.725,0,0,1,5.012-7.235l12.129-4.536L651.9,523.12Z" transform="translate(-196.874 -161.02)"/>
      <path id="패스_16017" data-name="패스 16017" class="cls-6" d="M595.179,263.449s-13.931,77.319-15.229,85.023,2.174,94.508,2.174,94.508h17.583s4.667-84.478,6.144-91.616,22.091-49.277,26.792-63.76,3.272-30.444,3.272-30.444Z" transform="translate(-179.493 -79.596)"/>
      <path id="패스_16018" data-name="패스 16018" class="cls-2" d="M632.868,296.908V259.16l-31.859,4.908s-.407,2.244-2.678,14.863Z" transform="translate(-185.275 -80.216)"/>
      <path id="패스_16019" data-name="패스 16019" class="cls-2" d="M631.9,264.3s-.628,78.575-.6,86.376,18.432,90.491,18.432,90.491l17.949-1.553s-10.576-83.18-10.355-90.435,13.406-52.308,15.6-67.385-1.933-30.555-1.933-30.555Z" transform="translate(-195.484 -77.763)"/>
      <path id="패스_16020" data-name="패스 16020" class="cls-7" d="M632.07,275.118,669.2,302.559c1.836-7.532,3.334-14.194,3.956-18.46,1.381-9.665.2-19.551-.835-25.35l-40.247,15.761C632.077,274.711,632.07,274.911,632.07,275.118Z" transform="translate(-195.722 -80.089)"/>
      <path id="패스_16021" data-name="패스 16021" class="cls-3" d="M598.69,259.61l-.69,6.807s27.269,17.873,62.3,5.792l5.178-1.726-1.118-9.147Z" transform="translate(-185.173 -80.355)"/>
      <path id="패스_16022" data-name="패스 16022" class="cls-27" d="M576.859,140.07l-6.379,37.921-56.36,6.524,2.071,11.1s43.72,3.2,54.537-.041,17.873-7.69,20.324-27.324S576.859,140.07,576.859,140.07Z" transform="translate(-159.199 -43.339)"/>
      <path id="패스_16023" data-name="패스 16023" class="cls-28" d="M636.823,123.12l29.25,7.242v92.085c-8.864,3.535-27.5,9.43-49.705,4.646a81.1,81.1,0,0,1-20.248-7.3c2.071-28.746,3.88-55.09,5.909-83.449a11.3,11.3,0,0,1,7.677-9.858l9.32-3.113Z" transform="translate(-184.59 -38.09)"/>
      <path id="패스_16024" data-name="패스 16024" class="cls-8" d="M646.725,123.12s-5.958,10.114-13.662,8.622-4.142-8.381-4.142-8.381Z" transform="translate(-194.493 -38.09)"/>
      <path id="패스_16025" data-name="패스 16025" class="cls-29" d="M665.8,240.664a90.881,90.881,0,0,0,21.85-5.751V164.5l-9.285-1.118Z" transform="translate(-206.167 -50.557)"/>
      <path id="패스_16026" data-name="패스 16026" class="cls-28" d="M692.122,133.61s39.867,29.167,42.8,42.629-29.305,43.147-29.305,43.147a7.52,7.52,0,0,1-7.594-5.868l22.091-34.255s-35.9-18.039-39.35-28.739S692.122,133.61,692.122,133.61Z" transform="translate(-210.64 -41.339)"/>
      <rect id="사각형_4420" data-name="사각형 4420" class="cls-13" width="52.501" height="52.501" transform="translate(348.439 104.325)"/>
      <path id="패스_16027" data-name="패스 16027" class="cls-4" d="M714.411,234.938h-52.5V182.43h52.5Z" transform="translate(-204.962 -56.456)"/>
      <path id="패스_16028" data-name="패스 16028" class="cls-23" d="M661.91,223.694l52.5-20.234v37.99h-52.5Z" transform="translate(-204.962 -62.968)"/>
      <path id="패스_16029" data-name="패스 16029" class="cls-5" d="M706.933,256.418s-3.024,2.761-6.42,2.761-10.445-5.095-9.547-9.154,7.642-4.439,9.4-3.8,3.521,5.951,4.984,6.551,3-4.556,4.936-5.191a2.844,2.844,0,0,1,2.948.428s-4.059,5.9-4.784,6.862A8.466,8.466,0,0,1,706.933,256.418Z" transform="translate(-213.935 -76.134)"/>
      <path id="패스_16030" data-name="패스 16030" class="cls-5" d="M500.071,209.29s.856,4.011,3.631,5.978,11.467,1.905,13.117-1.905-3.645-8.049-5.447-8.54-6.317,2.8-7.863,2.437.193-5.454-1.015-7.083a2.838,2.838,0,0,0-2.644-1.381s-.117,7.159-.083,8.36A8.572,8.572,0,0,0,500.071,209.29Z" transform="translate(-154.752 -61.522)"/>
      <path id="패스_16031" data-name="패스 16031" class="cls-5" d="M645.939,90.07v22.816s-3.831,3.252-10.569,2.858c-6.213-.359-7.228-2.616-7.228-2.616L625.56,101.3,645.939,90.07" transform="translate(-193.706 -27.856)"/>
      <path id="패스_16032" data-name="패스 16032" class="cls-9" d="M627.707,114.477a27.174,27.174,0,0,0,6.9-4.142,19.968,19.968,0,0,0,6.724-9.465l-13.669,2.6-2.106,1.16,2.147,9.837" transform="translate(-193.706 -31.201)"/>
      <rect id="사각형_4421" data-name="사각형 4421" class="cls-22" width="11.577" height="0.69" transform="translate(416.818 48.911)"/>
      <path id="패스_16033" data-name="패스 16033" class="cls-11" d="M607.9,47.185A28.65,28.65,0,0,0,605.93,56.3a65.213,65.213,0,0,0,1.381,9.893l7.877-20.11Z" transform="translate(-187.628 -14.235)"/>
      <path id="패스_16034" data-name="패스 16034" class="cls-5" d="M608.228,83.474c6.213,13.117,21.691,5.364,28.3-1.243s5.709-31.859,3.873-36.644-17.128-8.691-25.2-5.578S601.994,70.385,608.228,83.5" transform="translate(-187.482 -12.01)"/>
      <g id="그룹_10164" data-name="그룹 10164" transform="translate(418.309 62.234)">
        <g id="그룹_10163" data-name="그룹 10163" class="cls-30">
          <g id="그룹_10162" data-name="그룹 10162" transform="translate(-0.007)">
            <rect id="사각형_4422" data-name="사각형 4422" class="cls-31" width="13.117" height="16.361"/>
          </g>
        </g>
      </g>
      <path id="패스_16036" data-name="패스 16036" class="cls-32" d="M641.758,75.21h-6.973s-4.632,12.122-8.588,13.282a3.563,3.563,0,0,1-.98.131c-3.3,0-7.7-4.011-13.255-4.246h-1.381c-2.375,0-3.452.352-4.612,1.146a29.781,29.781,0,0,0,2.437,9.23c2.478,5.212,6.413,7.124,10.673,7.131,6.455,0,13.648-4.4,17.631-8.374,3.2-3.2,4.646-10.763,5.067-18.267" transform="translate(-187.64 -23.255)"/>
      <path id="패스_16037" data-name="패스 16037" class="cls-11" d="M639.205,60.892a8.387,8.387,0,0,1-7.582-9.122c.008-.091.019-.182.03-.273.359-2.837,1.194-3.749.456-6.441-1.47-5.357-7.9-4.832-12.24-2.858s-9.071,2-12.8-.828a6.807,6.807,0,0,1-1.6-8.975c2.423-3.907,11.045-8.595,11.045-8.595s-1.042,2.347-.69,3.562S639,21.715,643.686,31.87,642.1,61.162,642.1,61.162Z" transform="translate(-187.166 -7.336)"/>
      <path id="패스_16038" data-name="패스 16038" class="cls-5" d="M656.12,74.983c0,3.376-4.494,6.379-7.249,6.379s-2.761-3-2.761-6.379,2.237-6.123,4.991-6.123S656.12,71.6,656.12,74.983Z" transform="translate(-200.07 -21.289)"/>
      <path id="패스_16039" data-name="패스 16039" class="cls-9" d="M656.2,76.256c.318,1.512-1.381,3.279-2.644,3.541s1.422-1.8,1.1-3.314-2.506-2.23-1.27-2.492A2.584,2.584,0,0,1,656.2,76.256Z" transform="translate(-202.205 -22.865)"/>
      <path id="패스_16040" data-name="패스 16040" class="cls-22" d="M607.919,76.378c-2.554,0-4.639-2.685-4.639-5.985s2.071-5.992,4.639-5.992,4.646,2.685,4.646,5.992S610.48,76.378,607.919,76.378Zm0-11.287c-2.175,0-3.949,2.382-3.949,5.3s1.774,5.295,3.949,5.295,3.956-2.375,3.956-5.295S610.1,65.09,607.919,65.09Z" transform="translate(-186.807 -19.908)"/>
      <path id="패스_16041" data-name="패스 16041" class="cls-22" d="M623.479,76.378c-2.554,0-4.639-2.685-4.639-5.985s2.071-5.992,4.639-5.992,4.646,2.685,4.646,5.992S626.04,76.378,623.479,76.378Zm0-11.287c-2.175,0-3.949,2.382-3.949,5.3s1.774,5.295,3.949,5.295,3.956-2.375,3.956-5.295S625.661,65.09,623.479,65.09Z" transform="translate(-191.626 -19.908)"/>
      <rect id="사각형_4423" data-name="사각형 4423" class="cls-22" width="10.693" height="0.69" transform="translate(436.051 48.911)"/>
      <rect id="사각형_4424" data-name="사각형 4424" class="cls-22" width="2.147" height="0.69" transform="translate(425.413 48.911)"/>
      <path id="패스_16042" data-name="패스 16042" class="cls-8" d="M610.1,93.34h9.706s-1.967,4.591-5.24,4.722S610.1,93.34,610.1,93.34Z" transform="translate(-188.919 -28.869)"/>
      <path id="패스_16043" data-name="패스 16043" class="cls-8" d="M116.956,69.36s-7.283.193-8.5-.193l-1.208-.387a5.276,5.276,0,0,0,3.4,4.784,4.175,4.175,0,0,0,5.675-2.292C116.777,70.016,116.956,69.36,116.956,69.36Z" transform="translate(-33.21 -21.264)"/>
      <path id="패스_16044" data-name="패스 16044" class="cls-8" d="M551.181,191.77H520.64l15.271-24.21Z" transform="translate(-161.218 -51.851)"/>
    </g>
  </g>
</svg>
